<svg width="7" height="9" viewBox="0 0 7 9" fill="none" xmlns="http://www.w3.org/2000/svg">
<path d="M3.99748 3.49351V3.7013C3.99748 3.87273 3.86077 4.01299 3.69368 4.01299H1.82027L1.76963 4.05455L1.1114 4.57403V4.01299H0.706341C0.539253 4.01299 0.402544 3.87273 0.402544 3.7013V1.51948C0.402544 1.34805 0.539253 1.20779 0.706341 1.20779H1.8709V1H0.706341C0.42786 1 0.200012 1.23377 0.200012 1.51948V3.7013C0.200012 3.98701 0.42786 4.22078 0.706341 4.22078H0.908873V5L1.89115 4.22078H3.69368C3.97216 4.22078 4.20001 3.98701 4.20001 3.7013V3.49351H3.99748Z" fill="#3B97D3"/>
<path d="M5.49367 0.207792C5.66076 0.207792 5.79747 0.348052 5.79747 0.519481V2.7013C5.79747 2.87273 5.66076 3.01299 5.49367 3.01299H5.08861V3.57922L4.43038 3.05974L4.37975 3.01299H2.50633C2.33924 3.01299 2.20253 2.87273 2.20253 2.7013V0.519481C2.20253 0.348052 2.33924 0.207792 2.50633 0.207792H5.49367ZM5.49367 0H2.50633C2.22785 0 2 0.233766 2 0.519481V2.7013C2 2.98701 2.22785 3.22078 2.50633 3.22078H4.30886L5.29114 4V3.22078H5.49367C5.77215 3.22078 6 2.98701 6 2.7013V0.519481C6 0.233766 5.77215 0 5.49367 0Z" fill="#5070B1"/>
<path d="M4.41048 6.58047C3.7542 6.58047 3.22021 6.04648 3.22021 5.39021C3.22021 4.73394 3.7542 4.19995 4.41048 4.19995C5.06675 4.19995 5.60074 4.73394 5.60074 5.39021C5.60074 6.04648 5.06675 6.58047 4.41048 6.58047Z" fill="#5070B1"/>
<path d="M4.41048 4.31898C5.0012 4.31898 5.48171 4.79949 5.48171 5.39021C5.48171 5.98094 5.0012 6.46145 4.41048 6.46145C3.81975 6.46145 3.33924 5.98094 3.33924 5.39021C3.33924 4.79949 3.81975 4.31898 4.41048 4.31898ZM4.41048 4.19995C3.75309 4.19995 3.22021 4.73283 3.22021 5.39021C3.22021 6.04759 3.75309 6.58047 4.41048 6.58047C5.06786 6.58047 5.60074 6.04759 5.60074 5.39021C5.60074 4.73283 5.06786 4.19995 4.41048 4.19995Z" fill="#5070B1"/>
<path d="M2.26141 8.80496V8.52263C2.26141 7.58833 3.63155 7.23441 3.73765 7.2085H5.08347C5.18945 7.23441 6.55958 7.58821 6.55958 8.52263V8.80496H2.26141Z" fill="#5070B1"/>
<path d="M5.07598 7.27002C5.21757 7.30551 6.49818 7.65145 6.49818 8.52275V8.74368H2.32282V8.52275C2.32282 7.65145 3.60343 7.30551 3.74502 7.27002H5.07598ZM5.09059 7.14722H3.73041C3.73041 7.14722 2.20001 7.49439 2.20001 8.52275C2.20001 8.52275 2.20001 8.67061 2.20001 8.86648H6.62098C6.62098 8.67061 6.62098 8.52275 6.62098 8.52275C6.62098 7.49439 5.09059 7.14722 5.09059 7.14722Z" fill="#5070B1"/>
</svg>
