<svg width="11" height="15" viewBox="0 0 11 15" fill="none" xmlns="http://www.w3.org/2000/svg">
<path d="M2.5 4.00313H8.5C8.44688 3.37813 8.19688 2.90313 7.62813 2.75C7.61563 2.74688 7.6 2.74062 7.5875 2.7375C7.2125 2.63125 6.9375 2.50312 6.9375 2.09063V1.44687C6.9375 0.65 6.29688 0 5.5 0C4.70312 0 4.0625 0.646875 4.0625 1.44687V2.09063C4.0625 2.5 3.7875 2.62812 3.4125 2.73438C3.4 2.7375 3.38438 2.74688 3.36875 2.75C2.8 2.90313 2.55937 3.37813 2.5 4.00313ZM5.5 1.01562C5.7375 1.01562 5.93125 1.20937 5.93125 1.44687C5.93125 1.6875 5.7375 1.87812 5.5 1.87812C5.2625 1.87812 5.06875 1.68437 5.06875 1.44687C5.06875 1.20937 5.2625 1.01562 5.5 1.01562Z" fill="#5070B1"/>
<path d="M10.1438 0.971924H7.84375V1.42505C7.84375 1.7563 8.11563 2.00317 8.4375 2.00317H9.6C9.80938 2.00317 9.97813 2.1813 9.9875 2.3938L9.99063 12.6188C9.98125 12.8188 9.825 12.9813 9.63125 12.9969L1.36875 13C1.175 12.9844 1.02188 12.8219 1.00938 12.6219L1.00625 2.3938C1.01562 2.1813 1.19062 2.00317 1.39687 2.00317H2.5625C2.88438 2.00317 3.15625 1.7563 3.15625 1.42505V0.971924H0.85625C0.384375 0.971924 0 1.3813 0 1.86567V13.1282C0 13.6125 0.384375 14.0032 0.85625 14.0032H5.5H10.1438C10.6156 14.0032 11 13.6125 11 13.1282V1.86567C11 1.3813 10.6156 0.971924 10.1438 0.971924Z" fill="#5070B1"/>
<path d="M5.5 5.00317H2V5.50317H5.5V5.00317Z" fill="#5070B1"/>
<path d="M7 8.00317H2V8.50317H7V8.00317Z" fill="#5070B1"/>
<path d="M6.03125 11.0032H2V11.5032H6.03125V11.0032Z" fill="#5070B1"/>
<path d="M7.5 9.50317H2V10.0032H7.5V9.50317Z" fill="#5070B1"/>
<path d="M8.5 6.50317H2V7.00317H8.5V6.50317Z" fill="#5070B1"/>
</svg>
