<svg width="13" height="16" viewBox="0 0 13 16" fill="none" xmlns="http://www.w3.org/2000/svg">
<path fill-rule="evenodd" clip-rule="evenodd" d="M9.86733 1H2.13267C1.50802 1 1 1.51596 1 2.15036V13.1843C1 13.8187 1.50802 14.3347 2.13267 14.3347H9.86733C10.492 14.3347 11 13.8187 11 13.1843V2.15036C11 1.51596 10.492 1 9.86733 1ZM10.5872 13.1843C10.5872 13.591 10.2642 13.9219 9.86733 13.9219H2.13267C1.73578 13.9219 1.41277 13.591 1.41277 13.1843V2.15036C1.41277 1.74372 1.73578 1.41277 2.13267 1.41277H9.86733C10.2642 1.41277 10.5872 1.74372 10.5872 2.15036V13.1843Z" fill="#5070B1"/>
<path fill-rule="evenodd" clip-rule="evenodd" d="M10.0607 0.75H1.9393C1.28342 0.75 0.75 1.28512 0.75 1.94309V13.3869C0.75 14.0449 1.28342 14.58 1.9393 14.58H10.0607C10.7166 14.58 11.25 14.0449 11.25 13.3869V1.94309C11.25 1.28512 10.7166 0.75 10.0607 0.75ZM10.8166 13.3869C10.8166 13.8087 10.4774 14.1519 10.0607 14.1519H1.9393C1.52257 14.1519 1.18341 13.8087 1.18341 13.3869V1.94309C1.18341 1.52134 1.52257 1.1781 1.9393 1.1781H10.0607C10.4774 1.1781 10.8166 1.52134 10.8166 1.94309V13.3869Z" fill="#5070B1"/>
<path fill-rule="evenodd" clip-rule="evenodd" d="M10.2541 0.5H1.74594C1.05882 0.5 0.5 1.0506 0.5 1.7276V13.5024C0.5 14.1794 1.05882 14.73 1.74594 14.73H10.2541C10.9412 14.73 11.5 14.1794 11.5 13.5024V1.7276C11.5 1.0506 10.9412 0.5 10.2541 0.5ZM11.046 13.5024C11.046 13.9363 10.6906 14.2895 10.2541 14.2895H1.74594C1.30936 14.2895 0.954049 13.9363 0.954049 13.5024V1.7276C0.954049 1.29365 1.30936 0.940486 1.74594 0.940486H10.2541C10.6906 0.940486 11.046 1.29365 11.046 1.7276V13.5024Z" fill="#5070B1"/>
<path fill-rule="evenodd" clip-rule="evenodd" d="M8.91781 3.43237H5.58312C5.46956 3.43237 5.37756 3.52437 5.37756 3.63794C5.37756 3.75152 5.46956 3.84352 5.58312 3.84352H8.91781C9.0314 3.84352 9.1234 3.75152 9.1234 3.63794C9.1234 3.52437 9.0314 3.43237 8.91781 3.43237Z" fill="#5070B1"/>
<path d="M9.13 3.42993H5.38V3.92993H9.13V3.42993Z" fill="#5070B1"/>
<path d="M9.13 8.16016H5.38V8.66016H9.13V8.16016Z" fill="#5070B1"/>
<path d="M9.13 5.67993H5.38V6.17993H9.13V5.67993Z" fill="#5070B1"/>
<path fill-rule="evenodd" clip-rule="evenodd" d="M8.91781 5.67773H5.58312C5.46956 5.67773 5.37756 5.76973 5.37756 5.8833C5.37756 5.99688 5.46956 6.08888 5.58312 6.08888H8.91781C9.0314 6.08888 9.1234 5.99688 9.1234 5.8833C9.1234 5.76973 9.0314 5.67773 8.91781 5.67773Z" fill="#5070B1"/>
<path fill-rule="evenodd" clip-rule="evenodd" d="M8.91781 8.15649H5.58312C5.46956 8.15649 5.37756 8.24849 5.37756 8.36206C5.37756 8.47564 5.46956 8.56764 5.58312 8.56764H8.91781C9.0314 8.56764 9.1234 8.47564 9.1234 8.36206C9.1234 8.24849 9.0314 8.15649 8.91781 8.15649Z" fill="#5070B1"/>
<path d="M3.49896 4.26318C3.84427 4.26318 4.12421 3.98325 4.12421 3.63794C4.12421 3.29263 3.84427 3.0127 3.49896 3.0127C3.15365 3.0127 2.87372 3.29263 2.87372 3.63794C2.87372 3.98325 3.15365 4.26318 3.49896 4.26318Z" fill="#5070B1"/>
<path d="M3.49897 6.51711C3.84429 6.51711 4.12423 6.23717 4.12423 5.89186C4.12423 5.54654 3.84429 5.2666 3.49897 5.2666C3.15365 5.2666 2.87372 5.54654 2.87372 5.89186C2.87372 6.23717 3.15365 6.51711 3.49897 6.51711Z" fill="#5070B1"/>
<path d="M3.49897 8.98732C3.84429 8.98732 4.12423 8.70739 4.12423 8.36207C4.12423 8.01675 3.84429 7.73682 3.49897 7.73682C3.15365 7.73682 2.87372 8.01675 2.87372 8.36207C2.87372 8.70739 3.15365 8.98732 3.49897 8.98732Z" fill="#5070B1"/>
<g clip-path="url(#clip0_8_23)">
<path d="M6.76138 12.1322H6.99913C7.19308 12.1322 7.35575 11.965 7.35575 11.7667C7.35575 11.6667 7.31352 11.5761 7.23844 11.5089L7.08516 11.359C6.93344 11.209 6.93344 10.9637 7.08516 10.8138L7.43395 10.4686C7.50277 10.3998 7.60444 10.3592 7.70767 10.3592C7.81091 10.3592 7.91101 10.3998 7.98139 10.4686L8.12842 10.6154C8.19881 10.6935 8.29265 10.7357 8.39432 10.7357C8.59453 10.7357 8.76189 10.5732 8.76189 10.3811V10.1421C8.76189 9.9312 8.93238 9.75 9.1451 9.75H9.62059C9.83331 9.75 10.0022 9.92964 10.0022 10.1421V10.3795C10.0022 10.5717 10.1696 10.7341 10.3698 10.7341C10.4699 10.7341 10.5622 10.6919 10.6294 10.6185L10.7812 10.4686C10.85 10.3983 10.9517 10.3592 11.0549 10.3592C11.1581 10.3592 11.2582 10.3998 11.3286 10.4686L11.6805 10.8122C11.8307 10.9622 11.8307 11.2074 11.6805 11.3558L11.5335 11.5027C11.4553 11.573 11.4115 11.6667 11.4115 11.7667C11.4115 11.9666 11.5742 12.1322 11.7681 12.1322H12.0059C12.2202 12.1322 12.4 12.2993 12.4 12.5118V12.7492V12.9867C12.4 13.1975 12.2202 13.3662 12.0059 13.3662H11.7681C11.5742 13.3662 11.4115 13.5334 11.4115 13.7318C11.4115 13.8317 11.4553 13.9255 11.5335 13.9958L11.6805 14.141C11.8307 14.291 11.8307 14.5363 11.6805 14.6847L11.3317 15.0314C11.2629 15.1017 11.1612 15.1408 11.058 15.1408C10.9548 15.1408 10.8547 15.1002 10.7843 15.0314L10.6326 14.8815C10.5669 14.8081 10.473 14.7659 10.3729 14.7659C10.1727 14.7659 10.0054 14.9283 10.0054 15.1205V15.3579C10.0054 15.5688 9.83644 15.75 9.62215 15.75H9.14666C8.93394 15.75 8.76502 15.5704 8.76502 15.3579V15.1205C8.76502 14.9283 8.59766 14.7659 8.39745 14.7659C8.29735 14.7659 8.2035 14.8096 8.13155 14.8862L7.98452 15.033C7.91414 15.1017 7.81403 15.1423 7.7108 15.1423C7.60757 15.1423 7.50747 15.1017 7.43708 15.033L7.08828 14.6862C6.93813 14.5363 6.93813 14.291 7.08828 14.141L7.24157 13.9911C7.31665 13.9239 7.35888 13.8317 7.35888 13.7333C7.35888 13.5334 7.19621 13.3678 7.00226 13.3678H6.76451C6.55179 13.3678 6.40007 13.2007 6.40007 12.9882V12.7492V12.5118C6.39694 12.2993 6.54866 12.1322 6.76138 12.1322ZM8.13311 12.7492C8.13311 13.4381 8.6915 13.9989 9.38441 13.9989C10.0773 13.9989 10.6357 13.4381 10.6357 12.7492C10.6357 12.0603 10.0773 11.4995 9.38441 11.4995C8.6915 11.4995 8.13311 12.0603 8.13311 12.7492Z" fill="#686868"/>
</g>
<defs>
<clipPath id="clip0_8_23">
<rect width="6" height="6" fill="white" transform="matrix(-1 0 0 1 12.4 9.75)"/>
</clipPath>
</defs>
</svg>
