<svg width="12" height="12" viewBox="0 0 12 12" fill="none" xmlns="http://www.w3.org/2000/svg">
    <path d="M9.03534 4.25L9.03534 5.40469L3.7494 5.40469C3.68065 5.40469 3.6244 5.46094 3.6244 5.52969L3.6244 6.46719C3.6244 6.53594 3.68065 6.59219 3.7494 6.59219L9.03534 6.59219L9.03534 7.75C9.03534 7.85469 9.15565 7.9125 9.2369 7.84844L11.4525 6.09844C11.4675 6.08674 11.4796 6.0718 11.4879 6.05475C11.4962 6.03769 11.5005 6.01897 11.5005 6C11.5005 5.98103 11.4962 5.96231 11.4879 5.94525C11.4796 5.92819 11.4675 5.91326 11.4525 5.90156L9.23846 4.15156C9.15565 4.0875 9.03534 4.14531 9.03534 4.25ZM4.21815 11.7187L4.21815 10.7812C4.21815 10.7125 4.1619 10.6562 4.09315 10.6562L1.6869 10.6562L1.6869 1.34375L4.09315 1.34375C4.1619 1.34375 4.21815 1.2875 4.21815 1.21875L4.21815 0.28125C4.21815 0.2125 4.1619 0.15625 4.09315 0.15625L0.999402 0.15625C0.722839 0.15625 0.499402 0.379687 0.499402 0.65625L0.499402 11.3437C0.499402 11.6203 0.722839 11.8437 0.999402 11.8437L4.09315 11.8437C4.1619 11.8437 4.21815 11.7875 4.21815 11.7187Z" fill="#4D4F53"/>
</svg>
