<svg width="18" height="18" viewBox="0 0 18 18" fill="none" xmlns="http://www.w3.org/2000/svg">
    <path d="M1 17H0.3V17.7H1V17ZM1 7.58824L0.301779 7.53836L0.3 7.56327V7.58824H1ZM17 7.58824H17.7V7.56327L17.6982 7.53836L17 7.58824ZM17 17V17.7H17.7V17H17ZM12.2941 17L11.7991 17.495L12.0042 17.7H12.2941V17ZM11.3529 16.0588H10.6529V16.3488L10.858 16.5538L11.3529 16.0588ZM11.3529 11.3529L10.858 10.858L10.6529 11.063V11.3529H11.3529ZM12.2941 10.4118V9.71176H12.0042L11.7991 9.91679L12.2941 10.4118ZM5.70588 17V17.7H5.99583L6.20086 17.495L5.70588 17ZM6.64706 16.0588L7.14203 16.5538L7.34706 16.3488V16.0588H6.64706ZM6.64706 11.3529H7.34706V11.063L7.14203 10.858L6.64706 11.3529ZM5.70588 10.4118L6.20086 9.91679L5.99583 9.71176H5.70588V10.4118ZM1 7.58824C1.69822 7.63811 1.6982 7.63847 1.69817 7.63881C1.69816 7.63889 1.69814 7.6392 1.69813 7.63936C1.69811 7.63968 1.69809 7.63991 1.69808 7.64003C1.69806 7.64028 1.69807 7.64015 1.69811 7.63963C1.6982 7.63859 1.69841 7.63603 1.69877 7.63199C1.6995 7.6239 1.70083 7.60993 1.70296 7.59046C1.70723 7.55149 1.71469 7.49064 1.72687 7.41106C1.75126 7.25167 1.79441 7.01844 1.86834 6.73618C2.01679 6.16937 2.28575 5.41861 2.7653 4.67265C3.70157 3.21623 5.48481 1.7 9 1.7V0.3C4.98578 0.3 2.76902 2.07789 1.58765 3.91559C1.00837 4.81669 0.689097 5.71298 0.514016 6.38147C0.426177 6.71686 0.373736 6.99833 0.342985 7.19924C0.327593 7.2998 0.317586 7.38049 0.311284 7.43804C0.308132 7.46682 0.305903 7.48984 0.304389 7.50669C0.303632 7.51511 0.303053 7.522 0.302627 7.52729C0.302414 7.52994 0.302239 7.53219 0.302098 7.53404C0.302028 7.53496 0.301967 7.53578 0.301914 7.53651C0.301887 7.53687 0.301853 7.53733 0.30184 7.53751C0.301809 7.53795 0.301779 7.53836 1 7.58824ZM17 16.3H12.2941V17.7H17V16.3ZM12.7891 16.505L11.8479 15.5638L10.858 16.5538L11.7991 17.495L12.7891 16.505ZM12.0529 16.0588V11.3529H10.6529V16.0588H12.0529ZM11.8479 11.8479L12.7891 10.9067L11.7991 9.91679L10.858 10.858L11.8479 11.8479ZM12.2941 11.1118H16.0588V9.71176H12.2941V11.1118ZM1 17.7H5.70588V16.3H1V17.7ZM6.20086 17.495L7.14203 16.5538L6.15208 15.5638L5.21091 16.505L6.20086 17.495ZM7.34706 16.0588V11.3529H5.94706V16.0588H7.34706ZM7.14203 10.858L6.20086 9.91679L5.21091 10.9067L6.15208 11.8479L7.14203 10.858ZM5.70588 9.71176H1.94118V11.1118H5.70588V9.71176ZM1.7 17V10.4118H0.3V17H1.7ZM1.7 10.4118V7.58824H0.3V10.4118H1.7ZM1.94118 9.71176H1V11.1118H1.94118V9.71176ZM16.3 7.58824V10.4118H17.7V7.58824H16.3ZM16.3 10.4118V17H17.7V10.4118H16.3ZM16.0588 11.1118H17V9.71176H16.0588V11.1118ZM17 7.58824C17.6982 7.53836 17.6982 7.53795 17.6982 7.53751C17.6981 7.53733 17.6981 7.53687 17.6981 7.53651C17.698 7.53578 17.698 7.53496 17.6979 7.53404C17.6978 7.53219 17.6976 7.52994 17.6974 7.52729C17.6969 7.522 17.6964 7.51511 17.6956 7.50669C17.6941 7.48984 17.6919 7.46682 17.6887 7.43804C17.6824 7.38049 17.6724 7.2998 17.657 7.19924C17.6263 6.99833 17.5738 6.71686 17.486 6.38147C17.3109 5.71298 16.9916 4.81669 16.4124 3.91559C15.231 2.07789 13.0142 0.3 9 0.3V1.7C12.5152 1.7 14.2984 3.21623 15.2347 4.67265C15.7142 5.41861 15.9832 6.16937 16.1317 6.73618C16.2056 7.01844 16.2487 7.25167 16.2731 7.41106C16.2853 7.49064 16.2928 7.55149 16.297 7.59046C16.2992 7.60993 16.3005 7.6239 16.3012 7.63199C16.3016 7.63603 16.3018 7.63859 16.3019 7.63963C16.3019 7.64015 16.3019 7.64028 16.3019 7.64003C16.3019 7.63991 16.3019 7.63968 16.3019 7.63936C16.3019 7.6392 16.3018 7.63889 16.3018 7.63881C16.3018 7.63847 16.3018 7.63811 17 7.58824Z" fill="#5070B1"/>
</svg>
