<svg width="16" height="16" viewBox="0 0 16 16" fill="none" xmlns="http://www.w3.org/2000/svg">
    <path d="M8 0C3.58214 0 0 3.58214 0 8C0 12.4179 3.58214 16 8 16C12.4179 16 16 12.4179 16 8C16 3.58214 12.4179 0 8 0ZM8 14.6429C4.33214 14.6429 1.35714 11.6679 1.35714 8C1.35714 4.33214 4.33214 1.35714 8 1.35714C11.6679 1.35714 14.6429 4.33214 14.6429 8C14.6429 11.6679 11.6679 14.6429 8 14.6429Z" fill="#5070B1"/>
    <path d="M7 3.96429C7 4.22003 7.10536 4.4653 7.29289 4.64614C7.48043 4.82698 7.73478 4.92857 8 4.92857C8.26522 4.92857 8.51957 4.82698 8.70711 4.64614C8.89464 4.4653 9 4.22003 9 3.96429C9 3.70854 8.89464 3.46327 8.70711 3.28243C8.51957 3.10159 8.26522 3 8 3C7.73478 3 7.48043 3.10159 7.29289 3.28243C7.10536 3.46327 7 3.70854 7 3.96429ZM8.5 6.21429H7.5C7.40833 6.21429 7.33333 6.28661 7.33333 6.375V11.8393C7.33333 11.9277 7.40833 12 7.5 12H8.5C8.59167 12 8.66667 11.9277 8.66667 11.8393V6.375C8.66667 6.28661 8.59167 6.21429 8.5 6.21429Z" fill="#5070B1"/>
</svg>
