<svg width="13" height="14" viewBox="0 0 13 14" fill="none" xmlns="http://www.w3.org/2000/svg">
<path d="M6.5 7C4.57021 7 3 5.42979 3 3.5C3 1.57021 4.57021 0 6.5 0C8.42979 0 10 1.57021 10 3.5C10 5.42979 8.42979 7 6.5 7Z" fill="#5070B1"/>
<path d="M6.5 0.35C8.23705 0.35 9.65 1.76295 9.65 3.5C9.65 5.23705 8.23705 6.65 6.5 6.65C4.76295 6.65 3.35 5.23705 3.35 3.5C3.35 1.76295 4.76295 0.35 6.5 0.35ZM6.5 0C4.56695 0 3 1.56695 3 3.5C3 5.43305 4.56695 7 6.5 7C8.43305 7 10 5.43305 10 3.5C10 1.56695 8.43305 0 6.5 0Z" fill="#5070B1"/>
<path d="M0.180603 13.5414V12.7112C0.180603 9.96384 4.20952 8.92312 4.52152 8.84692H8.47895C8.79058 8.92312 12.8195 9.96348 12.8195 12.7112V13.5414H0.180603Z" fill="#5070B1"/>
<path d="M8.45687 9.02762C8.87323 9.13198 12.6389 10.1492 12.6389 12.7113V13.361H0.361112V12.7113C0.361112 10.1492 4.12678 9.13198 4.54314 9.02762H8.45687ZM8.49984 8.6665H4.50017C4.50017 8.6665 0 9.68737 0 12.7113C0 12.7113 0 13.1461 0 13.7221H13C13 13.1461 13 12.7113 13 12.7113C13 9.68737 8.49984 8.6665 8.49984 8.6665Z" fill="#5070B1"/>
</svg>
